<svg xmlns="http://www.w3.org/2000/svg" x="0px" y="0px" width="36" height="36" viewBox="0,0,255.99185,255.99185"
                        style="fill:#fff;">
                        <g fill="#none" fill-rule="nonzero" stroke="#fff" stroke-width="1" stroke-linecap="butt" stroke-linejoin="miter" stroke-miterlimit="10" stroke-dasharray="" stroke-dashoffset="0" font-family="none" font-weight="none" font-size="none" text-anchor="none" style="mix-blend-mode: normal"><g transform="scale(4,4)"><path d="M27.89453,10c-2.703,0 -4.89453,2.19153 -4.89453,4.89453v3.10547h1.00586c1.933,0 3.79819,0.81061 5.11719,2.22461l10.99609,11.78906c1.214,1.303 1.88086,2.99644 1.88086,4.77344v8.21289h4.18164c2.661,0 4.81836,-2.15736 4.81836,-4.81836v-15.18164h-10.53125c-2.464,0 -4.46875,-2.019 -4.46875,-4.5v-10.5zM39,11.3457v9.1543c0,0.827 0.65875,1.5 1.46875,1.5h8.46875zM17.89453,21c-2.703,0 -4.89453,2.19153 -4.89453,4.89453v23.05274c0,2.791 2.26173,5.05273 5.05273,5.05273h16.12891c2.661,0 4.81836,-2.15736 4.81836,-4.81836v-13.18164h-10.53125c-2.464,0 -4.46875,-2.019 -4.46875,-4.5v-10.5zM27,22.3457v9.1543c0,0.827 0.65875,1.5 1.46875,1.5h8.46875zM20.5,39h11c0.828,0 1.5,0.671 1.5,1.5c0,0.829 -0.672,1.5 -1.5,1.5h-11c-0.828,0 -1.5,-0.671 -1.5,-1.5c0,-0.829 0.672,-1.5 1.5,-1.5zM20.5,45h11c0.828,0 1.5,0.671 1.5,1.5c0,0.829 -0.672,1.5 -1.5,1.5h-11c-0.828,0 -1.5,-0.671 -1.5,-1.5c0,-0.829 0.672,-1.5 1.5,-1.5z"></path></g></g>
                        </svg>